<svg width="517" height="372" viewBox="0 0 517 372" fill="none" xmlns="http://www.w3.org/2000/svg">
<foreignObject x="0.655884" y="-19.5" width="535" height="411"><div xmlns="http://www.w3.org/1999/xhtml" style="backdrop-filter:blur(9.75px);clip-path:url(#bgblur_0_2_30_clip_path);height:100%;width:100%"></div></foreignObject><g data-figma-bg-blur-radius="19.5">
<rect x="20.1559" width="496" height="372" rx="16" fill="white" fill-opacity="0.05"/>
<rect x="20.6559" y="0.5" width="495" height="371" rx="15.5" stroke="white" stroke-opacity="0.1"/>
<mask id="path-3-inside-1_2_30" fill="white">
<path d="M37.1559 17H499.156V46H37.1559V17Z"/>
</mask>
<path d="M499.156 46V45H37.1559V46V47H499.156V46Z" fill="white" fill-opacity="0.1" mask="url(#path-3-inside-1_2_30)"/>
<rect x="37.1559" y="17" width="12" height="12" rx="6" fill="#EF4444" fill-opacity="0.8"/>
<rect x="57.1559" y="17" width="12" height="12" rx="6" fill="#EAB308" fill-opacity="0.8"/>
<rect x="77.1559" y="17" width="12" height="12" rx="6" fill="#22C55E" fill-opacity="0.8"/>
<rect x="419.156" y="19" width="80" height="8" rx="4" fill="white" fill-opacity="0.1"/>
<rect x="35.1559" y="62" width="104.5" height="293" rx="8" fill="white" fill-opacity="0.05"/>
<rect x="43.1559" y="70" width="88.5" height="8" rx="4" fill="white" fill-opacity="0.1"/>
<rect x="43.1559" y="86" width="59" height="8" rx="4" fill="white" fill-opacity="0.1"/>
<rect x="43.1559" y="315" width="88.5" height="32" rx="4" fill="#76B900" fill-opacity="0.2"/>
<rect x="43.6559" y="315.5" width="87.5" height="31" rx="3.5" stroke="#76B900" stroke-opacity="0.3"/>
<rect x="155.656" y="62" width="345.5" height="84.7" rx="8" fill="url(#paint0_linear_2_30)"/>
<rect x="156.156" y="62.5" width="344.5" height="83.7" rx="7.5" stroke="white" stroke-opacity="0.05"/>
<g clip-path="url(#clip1_2_30)">
<path d="M156.656 145.7L191.006 129.7L225.356 139.3L259.706 113.7L294.056 120.1L328.406 97.7L362.756 107.3L397.106 88.1L431.456 97.7L465.806 113.7L500.156 81.7V145.7H156.656Z" fill="#76B900" fill-opacity="0.2"/>
<path d="M156.656 145.7L191.006 129.7L225.356 139.3L259.706 113.7L294.056 120.1L328.406 97.7L362.756 107.3L397.106 88.1L431.456 97.7L465.806 113.7L500.156 81.7" stroke="#76B900" stroke-width="1.65875"/>
</g>
<rect x="155.656" y="162.7" width="164.75" height="192.3" rx="8" fill="white" fill-opacity="0.05"/>
<rect x="156.156" y="163.2" width="163.75" height="191.3" rx="7.5" stroke="white" stroke-opacity="0.05"/>
<rect x="336.406" y="162.7" width="164.75" height="192.3" rx="8" fill="white" fill-opacity="0.05"/>
<rect x="336.906" y="163.2" width="163.75" height="191.3" rx="7.5" stroke="white" stroke-opacity="0.05"/>
</g>
<defs>
<clipPath id="bgblur_0_2_30_clip_path" transform="translate(-0.655884 19.5)"><rect x="20.1559" width="496" height="372" rx="16"/>
</clipPath><linearGradient id="paint0_linear_2_30" x1="309.477" y1="24.2906" x2="348.651" y2="184.087" gradientUnits="userSpaceOnUse">
<stop stop-color="white" stop-opacity="0.1"/>
<stop offset="1" stop-color="white" stop-opacity="0"/>
</linearGradient>
<clipPath id="clip1_2_30">
<rect width="343.5" height="64" fill="white" transform="translate(156.656 81.7)"/>
</clipPath>
</defs>
</svg>
